<svg width="24" height="24" viewBox="0 0 24 24" fill="none" xmlns="http://www.w3.org/2000/svg">
  <path d="M12 20H19C20.1046 20 21 19.1046 21 18V11C21 9.89543 20.1046 9 19 9H12" stroke="currentColor" stroke-width="2" stroke-linecap="round" stroke-linejoin="round"/>
  <path d="M16 3.13C16.2527 3.38268 16.4412 3.68011 16.5497 4.00848C16.6583 4.33686 16.6773 4.68241 16.6056 5.01015C16.5339 5.33788 16.3744 5.6344 16.1472 5.86156L9.86 12.15L8.25 14.17L6.23 12.56L12.52 6.27C12.7472 6.04283 13.0437 5.88332 13.3714 5.81158C13.6992 5.73984 14.0447 5.75882 14.3731 5.86737C14.7015 5.97591 14.9989 6.16443 15.2516 6.41712L16.91 8.08" stroke="currentColor" stroke-width="2" stroke-linecap="round" stroke-linejoin="round"/>
  <path d="M2.3 21L10.9 12.4" stroke="currentColor" stroke-width="2" stroke-linecap="round" stroke-linejoin="round"/>
</svg>