<svg width="24" height="24" viewBox="0 0 24 24" fill="none" xmlns="http://www.w3.org/2000/svg">
  <circle cx="12" cy="12" r="3" stroke="currentColor" stroke-width="2" stroke-linecap="round" stroke-linejoin="round"/>
  <path d="M19.4 15C19.2669 15.3016 19.2143 15.6362 19.25 16C19.2857 16.3638 19.4111 16.6984 19.6 17C19.7889 17.3016 20.0634 17.5647 20.4 17.7M14.5 21C15.1628 20.6504 15.7234 20.2223 16.166 19.7362C16.6086 19.2501 16.9273 18.7162 17.1111 18.1667C17.2949 17.6172 17.3474 17.0466 17.2667 16.5C17.186 15.9534 17.0362 15.4395 16.7673 15.0111C16.4983 14.5828 16.1335 14.25 15.7143 14C15.2951 13.75 14.8245 13.6667 14.375 13.6667C13.9255 13.6667 13.4549 13.75 13.0357 14C12.6165 14.25 12.2517 14.5828 11.9828 15.0111C11.7139 15.4395 11.5641 15.9534 11.4833 16.5C11.4026 17.0466 11.4551 17.6172 11.6389 18.1667C11.8227 18.7162 12.1414 19.2501 12.584 19.7362C13.0266 20.2223 13.5872 20.6504 14.25 21V21Z" stroke="currentColor" stroke-width="2" stroke-linecap="round" stroke-linejoin="round"/>
  <path d="M10.25 4.25L8.7 5.8C8.54181 5.95819 8.35245 6.05227 8.14214 6.07762C7.93182 6.10297 7.72108 6.05939 7.54102 5.9539C7.36097 5.84842 7.22471 5.6926 7.15789 5.5L5.1 3.4C4.94181 3.24181 4.75245 3.14773 4.54214 3.12238C4.33182 3.09703 4.12108 3.14061 3.94102 3.2461C3.76097 3.35158 3.62471 3.5074 3.55789 3.69999C3.49107 3.89259 3.49989 4.1074 3.58172 4.28906C3.66354 4.47072 3.81103 4.60797 4 4.66666L6.1 6.7C6.29259 6.76782 6.5074 6.77665 6.68906 6.85847C6.87072 6.9403 7.00797 7.08779 7.06666 7.27777C7.12536 7.46776 7.12536 7.67038 7.06666 7.86037C7.00797 8.05035 6.87072 8.19784 6.68906 8.27966C6.5074 8.36149 6.29259 8.37031 6.1 8.33333L4 6.23333" stroke="currentColor" stroke-width="2" stroke-linecap="round" stroke-linejoin="round"/>
</svg>